<svg width="800" height="160" overflow="visible" style="display: block;" viewBox="0 0 800 160" fill="none" xmlns="http://www.w3.org/2000/svg">
<g id="Icons Group">
<path id="Exclude" d="M138.667 0C150.449 0 160 9.55126 160 21.3333V138.667C160 150.449 150.449 160 138.667 160H21.3333C9.55126 160 6.01346e-07 150.449 0 138.667V21.3333C0 9.55126 9.55126 6.01307e-07 21.3333 0H138.667ZM80 10.6667C73.1609 10.6667 66.553 11.6831 60.3115 13.5729L61.0854 55.3896L21.9656 42.7938C15.2579 53.2609 11.1725 65.6517 10.6667 78.9844L50.9615 91.9573L27.3823 128.167C35.4933 137.83 46.0935 145.234 58.1635 149.333L80.6156 114.856L104.071 148.53C115.969 144.019 126.331 136.259 134.131 126.301L110.021 91.6854L149.333 78.9927C148.829 65.6605 144.746 53.2697 138.04 42.8021L98.1635 55.6771L97.3719 12.9156C91.8199 11.4484 85.9989 10.6667 80 10.6667Z" fill="var(--fill-0, #DD3C57)"/>
<path id="Exclude_2" d="M298.667 0C310.449 0 320 9.55126 320 21.3333V138.667C320 150.449 310.449 160 298.667 160H181.333C169.551 160 160 150.449 160 138.667V21.3333C160 9.55126 169.551 6.01307e-07 181.333 0H298.667ZM292.158 27.9313C273.354 9.02853 241.114 10.6645 239.999 10.7271C238.846 10.6626 206.635 9.04058 187.842 27.9313C169.925 45.9413 170.556 76.2118 170.709 80C170.556 83.7883 169.925 114.059 187.842 132.069C206.635 150.96 238.847 149.336 239.999 149.272C241.113 149.334 273.353 150.972 292.158 132.069C310.076 114.058 309.443 83.7858 309.29 80C309.443 76.2142 310.076 45.9422 292.158 27.9313ZM240 17.4552C240.486 28.1702 243.281 49.3176 257.082 63.1906C268.966 75.1367 286.217 78.8789 297.585 80C286.217 81.1211 268.966 84.8633 257.082 96.8094C243.282 110.682 240.486 131.828 240 142.544C239.514 131.829 236.718 110.682 222.918 96.8094C211.036 84.8658 193.791 81.122 182.422 80C193.791 78.878 211.036 75.1342 222.918 63.1906C236.719 49.3174 239.514 28.17 240 17.4552Z" fill="var(--fill-0, #1F49BF)"/>
<path id="Exclude_3" d="M458.667 0C470.449 0 480 9.55126 480 21.3333V138.667C480 150.449 470.449 160 458.667 160H341.333C329.551 160 320 150.449 320 138.667V21.3333C320 9.55135 329.551 0.00014134 341.333 0H458.667ZM360.47 40.4708C355.888 43.0283 351.578 46.2539 347.684 50.1479C324.994 72.8379 324.994 109.626 347.684 132.316C370.374 155.006 407.162 155.006 429.852 132.316C433.746 128.422 436.972 124.112 439.529 119.53C417.413 131.874 388.943 128.648 370.148 109.852C351.352 91.0565 348.126 62.5871 360.47 40.4708ZM452.316 27.6844C429.626 4.99451 392.838 4.99446 370.148 27.6844C366.254 31.5787 363.027 35.8885 360.47 40.4708C382.586 28.1266 411.056 31.3522 429.852 50.1479C448.648 68.9437 451.873 97.4138 439.529 119.53C444.112 116.973 448.421 113.746 452.316 109.852C475.006 87.1621 475.006 50.3744 452.316 27.6844Z" fill="var(--fill-0, #FFCE00)"/>
<path id="Exclude_4" d="M618.667 0C630.449 0 640 9.55126 640 21.3333V138.667C640 150.449 630.449 160 618.667 160H501.333C489.551 160 480 150.449 480 138.667V21.3333C480 9.55126 489.551 6.01307e-07 501.333 0H618.667ZM490.923 73.9469C490.909 74.0824 487.44 108.426 506.465 129.201C525.485 149.971 559.802 149.331 559.953 149.328C559.953 149.328 559.971 149.136 559.999 148.773C560.027 149.128 560.045 149.32 560.046 149.33C560.046 149.33 594.473 150.02 613.535 129.204C632.598 108.388 629.077 73.949 629.077 73.949C629.027 73.948 594.636 73.2745 575.588 94.075C564.017 106.71 560.768 124.363 560 136.289C559.233 124.364 555.983 106.708 544.413 94.0729C525.374 73.2836 491.01 73.9452 490.923 73.9469ZM490.923 10.6688C490.923 10.6688 487.402 45.1082 506.465 65.924C525.486 86.695 559.805 86.0529 559.953 86.05C559.954 86.0403 559.971 85.8494 559.999 85.4958C560.027 85.8512 560.045 86.0429 560.046 86.0521C560.046 86.0521 594.473 86.742 613.535 65.926C632.598 45.1103 629.077 10.6708 629.077 10.6708C629.028 10.6699 594.636 9.99615 575.588 30.7969C564.017 43.4318 560.768 61.0864 560 73.0115C559.233 61.0865 555.983 43.4314 544.413 30.7958C525.376 10.0079 491.015 10.667 490.923 10.6688Z" fill="var(--fill-0, #067743)"/>
<path id="Exclude_5" d="M778.667 0C790.449 0 800 9.55126 800 21.3333V138.667C800 150.449 790.449 160 778.667 160H661.333C649.551 160 640 150.449 640 138.667V21.3333C640 9.55126 649.551 6.01307e-07 661.333 0H778.667ZM663.197 120C675.79 137.747 696.538 149.333 720 149.333C743.462 149.333 764.21 137.747 776.803 120H663.197ZM650.667 85.3333C651.317 93.8568 653.513 101.949 656.976 109.333H783.024C786.487 101.949 788.683 93.8568 789.333 85.3333H650.667ZM656.976 50.6667C653.513 58.0505 651.317 66.1432 650.667 74.6667H789.333C788.683 66.1432 786.487 58.0505 783.024 50.6667H656.976ZM720 10.6667C696.538 10.6667 675.79 22.2531 663.197 40H776.803C764.21 22.2531 743.462 10.6667 720 10.6667Z" fill="var(--fill-0, #FFBFC7)"/>
</g>
</svg>
